<svg width="130" height="24" viewBox="0 0 130 24" fill="none" xmlns="http://www.w3.org/2000/svg">
<g clip-path="url(#clip0_584_1284)">
<path fill-rule="evenodd" clip-rule="evenodd" d="M8.13815 15.3271C3.10071 15.3556 1.09222 10.4696 2.30952 5.58071C4.7172 2.17041 9.2143 0.556364 13.8859 2.06972C13.3472 2.66927 13.5364 2.51249 12.9948 3.09479C9.10026 7.28417 6.24152 19.5973 15.5554 21.1179C13.9694 22.4955 10.639 22.7667 8.2512 22.2683C0.515864 20.6537 -2.11052 11.354 1.78403 6.30323C1.35843 9.26692 1.13207 11.5606 2.726 14.2611C3.81005 16.0978 5.39582 17.5446 8.56424 17.3902L8.13815 15.3271Z" fill="#17448C"/>
<path fill-rule="evenodd" clip-rule="evenodd" d="M12.1943 16.1689C12.7933 18.4655 14.8214 19.7866 17.8189 19.6837C19.0917 18.1533 20.617 16.2267 20.9396 13.1419C21.2562 10.1133 20.29 7.49863 18.8276 5.75488C17.4339 10.9741 16.4751 12.9538 12.1943 16.1689V16.1689Z" fill="#17448C"/>
<path fill-rule="evenodd" clip-rule="evenodd" d="M11.6037 12.763C14.148 12.0239 16.5665 7.58523 16.9904 3.92035L16.2037 3.34766C12.9679 5.92227 11.3408 10.6573 11.6037 12.763Z" fill="#17448C"/>
</g>
<path d="M26.4347 4.45455H29.6591L33.9773 14.9943H34.1477L38.4659 4.45455H41.6903V19H39.1619V9.0071H39.027L35.0071 18.9574H33.1179L29.098 8.9858H28.9631V19H26.4347V4.45455ZM46.044 23.0909C45.6937 23.0909 45.3693 23.0625 45.071 23.0057C44.7775 22.9536 44.5431 22.892 44.3679 22.821L44.9645 20.8182C45.3385 20.9271 45.6723 20.9792 45.9659 20.9744C46.2595 20.9697 46.5175 20.8774 46.7401 20.6974C46.9673 20.5223 47.1591 20.2287 47.3153 19.8168L47.5355 19.2273L43.5795 8.09091H46.3068L48.821 16.3295H48.9347L51.456 8.09091H54.1903L49.8224 20.321C49.6188 20.8987 49.349 21.3935 49.0128 21.8054C48.6766 22.2221 48.2647 22.5393 47.777 22.7571C47.294 22.9796 46.7164 23.0909 46.044 23.0909ZM56.0831 19V4.45455H58.6541V9.89489H58.7607C58.8932 9.62973 59.0803 9.34801 59.3217 9.04972C59.5632 8.74669 59.8899 8.48864 60.3018 8.27557C60.7138 8.05777 61.2393 7.94886 61.8786 7.94886C62.7214 7.94886 63.4813 8.1643 64.1584 8.59517C64.8402 9.02131 65.38 9.65341 65.7777 10.4915C66.1802 11.3248 66.3814 12.3475 66.3814 13.5597C66.3814 14.7576 66.1849 15.7756 65.7919 16.6136C65.3989 17.4517 64.8639 18.0909 64.1868 18.5312C63.5097 18.9716 62.7427 19.1918 61.8857 19.1918C61.2607 19.1918 60.7422 19.0876 60.3303 18.8793C59.9183 18.6709 59.5869 18.42 59.3359 18.1264C59.0897 17.8281 58.898 17.5464 58.7607 17.2812H58.6115V19H56.0831ZM58.6044 13.5455C58.6044 14.2509 58.7038 14.8688 58.9027 15.3991C59.1063 15.9295 59.3975 16.3437 59.7763 16.642C60.1598 16.9356 60.6238 17.0824 61.1683 17.0824C61.7365 17.0824 62.2124 16.9309 62.5959 16.6278C62.9794 16.3201 63.2682 15.901 63.4624 15.3707C63.6612 14.8357 63.7607 14.2273 63.7607 13.5455C63.7607 12.8684 63.6636 12.267 63.4695 11.7415C63.2753 11.2159 62.9865 10.804 62.603 10.5057C62.2195 10.2074 61.7412 10.0582 61.1683 10.0582C60.6191 10.0582 60.1527 10.2027 59.7692 10.4915C59.3857 10.7803 59.0945 11.1851 58.8956 11.706C58.7015 12.2268 58.6044 12.84 58.6044 13.5455ZM68.5671 19V8.09091H71.1381V19H68.5671ZM69.8597 6.54261C69.4525 6.54261 69.1022 6.40767 68.8086 6.13778C68.515 5.86316 68.3683 5.53409 68.3683 5.15057C68.3683 4.76231 68.515 4.43324 68.8086 4.16335C69.1022 3.88873 69.4525 3.75142 69.8597 3.75142C70.2717 3.75142 70.622 3.88873 70.9109 4.16335C71.2044 4.43324 71.3512 4.76231 71.3512 5.15057C71.3512 5.53409 71.2044 5.86316 70.9109 6.13778C70.622 6.40767 70.2717 6.54261 69.8597 6.54261ZM79.2294 8.09091V10.0795H72.9581V8.09091H79.2294ZM74.5064 5.47727H77.0774V15.7188C77.0774 16.0644 77.1295 16.3295 77.2337 16.5142C77.3426 16.6941 77.4846 16.8172 77.6598 16.8835C77.835 16.9498 78.0291 16.983 78.2422 16.983C78.4032 16.983 78.55 16.9711 78.6825 16.9474C78.8198 16.9238 78.924 16.9025 78.995 16.8835L79.4283 18.8935C79.291 18.9408 79.0945 18.9929 78.8388 19.0497C78.5878 19.1065 78.2801 19.1397 77.9155 19.1491C77.2715 19.1681 76.6915 19.071 76.1754 18.858C75.6593 18.6402 75.2498 18.304 74.9467 17.8494C74.6484 17.3949 74.5017 16.8267 74.5064 16.1449V5.47727ZM89.8455 10.9744L87.5018 11.2301C87.4355 10.9934 87.3195 10.7708 87.1538 10.5625C86.9928 10.3542 86.775 10.1861 86.5004 10.0582C86.2257 9.9304 85.8896 9.86648 85.4918 9.86648C84.9568 9.86648 84.507 9.98248 84.1424 10.2145C83.7826 10.4465 83.605 10.7472 83.6097 11.1165C83.605 11.4337 83.721 11.6918 83.9577 11.8906C84.1992 12.0895 84.5969 12.2528 85.1509 12.3807L87.0117 12.7784C88.0439 13.0009 88.811 13.3537 89.3129 13.8366C89.8195 14.3196 90.0752 14.9517 90.0799 15.733C90.0752 16.4195 89.8739 17.0256 89.4762 17.5511C89.0832 18.072 88.5363 18.4792 87.8356 18.7727C87.1348 19.0663 86.3299 19.2131 85.4208 19.2131C84.0856 19.2131 83.0108 18.9337 82.1964 18.375C81.382 17.8116 80.8967 17.0279 80.7404 16.0241L83.2475 15.7827C83.3612 16.2751 83.6026 16.6468 83.9719 16.8977C84.3413 17.1487 84.8219 17.2741 85.4137 17.2741C86.0245 17.2741 86.5146 17.1487 86.8839 16.8977C87.2579 16.6468 87.445 16.3366 87.445 15.9673C87.445 15.6548 87.3242 15.3968 87.0827 15.1932C86.846 14.9896 86.4767 14.8333 85.9748 14.7244L84.114 14.3338C83.0676 14.116 82.2934 13.7491 81.7915 13.233C81.2897 12.7121 81.0411 12.054 81.0458 11.2585C81.0411 10.5862 81.2234 10.0038 81.5927 9.51136C81.9667 9.0142 82.4852 8.63068 83.1481 8.3608C83.8157 8.08617 84.5851 7.94886 85.4563 7.94886C86.7347 7.94886 87.7409 8.22112 88.4748 8.76562C89.2134 9.31013 89.6703 10.0464 89.8455 10.9744ZM97.6474 8.09091V10.0795H91.3761V8.09091H97.6474ZM92.9244 5.47727H95.4954V15.7188C95.4954 16.0644 95.5475 16.3295 95.6516 16.5142C95.7605 16.6941 95.9026 16.8172 96.0778 16.8835C96.253 16.9498 96.4471 16.983 96.6602 16.983C96.8211 16.983 96.9679 16.9711 97.1005 16.9474C97.2378 16.9238 97.342 16.9025 97.413 16.8835L97.8462 18.8935C97.7089 18.9408 97.5124 18.9929 97.2567 19.0497C97.0058 19.1065 96.698 19.1397 96.3335 19.1491C95.6895 19.1681 95.1095 19.071 94.5934 18.858C94.0773 18.6402 93.6677 18.304 93.3647 17.8494C93.0664 17.3949 92.9196 16.8267 92.9244 16.1449V5.47727ZM104.439 19.2131C103.374 19.2131 102.45 18.9787 101.669 18.5099C100.888 18.0412 100.282 17.3854 99.8509 16.5426C99.4247 15.6998 99.2116 14.715 99.2116 13.5881C99.2116 12.4612 99.4247 11.474 99.8509 10.6264C100.282 9.77888 100.888 9.12074 101.669 8.65199C102.45 8.18324 103.374 7.94886 104.439 7.94886C105.504 7.94886 106.428 8.18324 107.209 8.65199C107.99 9.12074 108.594 9.77888 109.02 10.6264C109.451 11.474 109.666 12.4612 109.666 13.5881C109.666 14.715 109.451 15.6998 109.02 16.5426C108.594 17.3854 107.99 18.0412 107.209 18.5099C106.428 18.9787 105.504 19.2131 104.439 19.2131ZM104.453 17.1534C105.031 17.1534 105.514 16.9948 105.902 16.6776C106.29 16.3556 106.579 15.9247 106.768 15.3849C106.963 14.8452 107.06 14.2438 107.06 13.581C107.06 12.9134 106.963 12.3097 106.768 11.7699C106.579 11.2254 106.29 10.7921 105.902 10.4702C105.514 10.1482 105.031 9.98722 104.453 9.98722C103.861 9.98722 103.369 10.1482 102.976 10.4702C102.588 10.7921 102.296 11.2254 102.102 11.7699C101.913 12.3097 101.818 12.9134 101.818 13.581C101.818 14.2438 101.913 14.8452 102.102 15.3849C102.296 15.9247 102.588 16.3556 102.976 16.6776C103.369 16.9948 103.861 17.1534 104.453 17.1534ZM111.848 19V8.09091H114.341V9.90909H114.455C114.654 9.27936 114.995 8.79403 115.478 8.45312C115.965 8.10748 116.522 7.93466 117.147 7.93466C117.289 7.93466 117.447 7.94176 117.623 7.95597C117.802 7.96544 117.952 7.98201 118.07 8.00568V10.3707C117.961 10.3329 117.788 10.2997 117.551 10.2713C117.319 10.2382 117.095 10.2216 116.877 10.2216C116.408 10.2216 115.987 10.3234 115.613 10.527C115.243 10.7259 114.952 11.0028 114.739 11.358C114.526 11.7131 114.419 12.1226 114.419 12.5866V19H111.848ZM124.158 19.2131C123.065 19.2131 122.12 18.9858 121.325 18.5312C120.534 18.072 119.925 17.4233 119.499 16.5852C119.073 15.7424 118.86 14.7505 118.86 13.6094C118.86 12.4872 119.073 11.5024 119.499 10.6548C119.93 9.80256 120.531 9.13968 121.303 8.66619C122.075 8.18797 122.982 7.94886 124.023 7.94886C124.696 7.94886 125.33 8.05777 125.927 8.27557C126.528 8.48864 127.058 8.82008 127.518 9.26989C127.982 9.7197 128.346 10.2926 128.612 10.9886C128.877 11.6799 129.009 12.5038 129.009 13.4602V14.2486H120.067V12.5156H126.545C126.54 12.0232 126.433 11.5852 126.225 11.2017C126.017 10.8134 125.726 10.508 125.352 10.2855C124.982 10.063 124.551 9.9517 124.059 9.9517C123.533 9.9517 123.072 10.0795 122.674 10.3352C122.276 10.5862 121.966 10.9176 121.744 11.3295C121.526 11.7367 121.415 12.1842 121.41 12.6719V14.1847C121.41 14.8191 121.526 15.3636 121.758 15.8182C121.99 16.268 122.314 16.6136 122.731 16.8551C123.147 17.0919 123.635 17.2102 124.194 17.2102C124.568 17.2102 124.906 17.1581 125.21 17.054C125.513 16.9451 125.775 16.7865 125.998 16.5781C126.22 16.3698 126.388 16.1117 126.502 15.804L128.903 16.0739C128.751 16.7083 128.462 17.2623 128.036 17.7358C127.615 18.2045 127.075 18.5691 126.417 18.8295C125.759 19.0852 125.006 19.2131 124.158 19.2131Z" fill="#17448C"/>
<defs>
<clipPath id="clip0_584_1284">
<rect width="21" height="21" fill="white" transform="translate(0 1.5)"/>
</clipPath>
</defs>
</svg>
